<mxfile host="Electron" agent="Mozilla/5.0 (Macintosh; Intel Mac OS X 10_15_7) AppleWebKit/537.36 (KHTML, like Gecko) draw.io/26.0.9 Chrome/128.0.6613.186 Electron/32.2.5 Safari/537.36" version="26.0.9">
  <diagram name="Page-1" id="Vnu2i-BlupItWaMRqm4q">
    <mxGraphModel dx="1242" dy="878" grid="0" gridSize="10" guides="1" tooltips="1" connect="1" arrows="1" fold="1" page="1" pageScale="1" pageWidth="850" pageHeight="1100" math="0" shadow="0">
      <root>
        <mxCell id="0" />
        <mxCell id="1" parent="0" />
        <mxCell id="QUan4tAfIU0XuDufGxuR-4" style="edgeStyle=orthogonalEdgeStyle;rounded=0;orthogonalLoop=1;jettySize=auto;html=1;exitX=1;exitY=0.5;exitDx=0;exitDy=0;" edge="1" parent="1" source="_PeniUug22jsn_E3Xyb6-74" target="QUan4tAfIU0XuDufGxuR-2">
          <mxGeometry relative="1" as="geometry">
            <Array as="points">
              <mxPoint x="535" y="628" />
              <mxPoint x="535" y="559" />
            </Array>
          </mxGeometry>
        </mxCell>
        <mxCell id="_PeniUug22jsn_E3Xyb6-74" value="Data Streams" style="shape=image;verticalLabelPosition=bottom;labelBackgroundColor=#ffffff;verticalAlign=top;aspect=fixed;imageAspect=0;image=data:image/svg+xml,PHN2ZyB4bWxucz0iaHR0cDovL3d3dy53My5vcmcvMjAwMC9zdmciIHdpZHRoPSIzMiIgaGVpZ2h0PSIzMiIgdmlld0JveD0iMCAwIDMyIDMyIiBmaWxsPSJub25lIj4mI3hhOzxwYXRoIGQ9Ik0wIDE2QzAgNy4xNjM0NCA3LjE2MzQ0IDAgMTYgMEMyNC44MzY2IDAgMzIgNy4xNjM0NCAzMiAxNkMzMiAyNC44MzY2IDI0LjgzNjYgMzIgMTYgMzJDNy4xNjM0NCAzMiAwIDI0LjgzNjYgMCAxNloiIGZpbGw9IiM1MjgyRkYiLz4mI3hhOzxwYXRoIGZpbGwtcnVsZT0iZXZlbm9kZCIgY2xpcC1ydWxlPSJldmVub2RkIiBkPSJNMTkgMjEuNDkyQzE5IDIxLjI2NSAxOS4wNTEgMjEuMDUyIDE5LjE0NiAyMC44NTJMMTcuMjk4IDE4Ljk5OEgxNlYxOS42NzhDMTYgMjAuNDEyIDE1LjQwOCAyMC45OTggMTQuNjc5IDIwLjk5OEg5LjMyQzguNTkxIDIwLjk5OCA4IDIwLjQxMiA4IDE5LjY3OFYxMS4zMTlDOCAxMC41ODYgOC41OTIgOS45OTkwMSA5LjMyMSA5Ljk5OTAxSDE0LjY4QzE1LjQxIDkuOTk5MDEgMTYuMDAxIDEwLjU4NiAxNi4wMDEgMTEuMzE5VjExLjk5OUgxNy4yOTlMMTkuMTQ2IDEwLjE0NkMxOS4wMzYxIDkuOTE3NDkgMTguOTg2IDkuNjY0OCAxOS4wMDA0IDkuNDExNjNDMTkuMDE0OSA5LjE1ODQ2IDE5LjA5MzQgOC45MTMxMiAxOS4yMjg3IDguNjk4NjFDMTkuMzYzOSA4LjQ4NDEgMTkuNTUxNCA4LjMwNzQ3IDE5Ljc3MzYgOC4xODUyN0MxOS45OTU4IDguMDYzMDggMjAuMjQ1NCA3Ljk5OTMzIDIwLjQ5OSA4LjAwMDAxQzIwLjcyNDIgNy45OTk5MSAyMC45NDY2IDguMDUwNTQgMjEuMTQ5NiA4LjE0ODEzQzIxLjM1MjUgOC4yNDU3MiAyMS41MzA5IDguMzg3NzYgMjEuNjcxNSA4LjU2MzcyQzIxLjgxMjEgOC43Mzk2OCAyMS45MTEyIDguOTQ1MDMgMjEuOTYxNiA5LjE2NDU1QzIyLjAxMiA5LjM4NDA3IDIyLjAxMjMgOS42MTIxMSAyMS45NjI1IDkuODMxNzVDMjEuOTEyNiAxMC4wNTE0IDIxLjgxNCAxMC4yNTcgMjEuNjczOSAxMC40MzMzQzIxLjUzMzcgMTAuNjA5NiAyMS4zNTU3IDEwLjc1MjEgMjEuMTUzIDEwLjg1MDJDMjAuOTUwMiAxMC45NDgzIDIwLjcyOCAxMC45OTk1IDIwLjUwMjggMTFDMjAuMjc3NiAxMS4wMDA1IDIwLjA1NTEgMTAuOTUwMiAxOS44NTIgMTAuODUzTDE3Ljg2IDEyLjg1M0MxNy43NjU4IDEyLjk0NjIgMTcuNjM4NSAxMi45OTgzIDE3LjUwNiAxMi45OThIMTZWMTQuOTk4SDIxLjA4MkMyMS4yODggMTQuNDExIDIxLjg0NCAxMy45OTggMjIuNDk4IDEzLjk5OEMyMi44OTU4IDEzLjk5OCAyMy4yNzc0IDE0LjE1NiAyMy41NTg3IDE0LjQzNzNDMjMuODQgMTQuNzE4NiAyMy45OTggMTUuMTAwMiAyMy45OTggMTUuNDk4QzIzLjk5OCAxNS44OTU4IDIzLjg0IDE2LjI3NzQgMjMuNTU4NyAxNi41NTg3QzIzLjI3NzQgMTYuODQgMjIuODk1OCAxNi45OTggMjIuNDk4IDE2Ljk5OEMyMS44NDQgMTYuOTk4IDIxLjI4OCAxNi41ODQgMjEuMDgyIDE1Ljk5OEgxNlYxNy45OThIMTcuNTA2QzE3LjYzOCAxNy45OTggMTcuNzY2IDE4LjA1MSAxNy44NiAxOC4xNDRMMTkuODUzIDIwLjE0NEMyMC4wODEyIDIwLjAzMzYgMjAuMzMzNiAxOS45ODMgMjAuNTg2NyAxOS45OTY4QzIwLjgzOTggMjAuMDEwNiAyMS4wODUzIDIwLjA4ODUgMjEuMzAwMSAyMC4yMjMxQzIxLjUxNDggMjAuMzU3OCAyMS42OTE5IDIwLjU0NDcgMjEuODE0NyAyMC43NjY1QzIxLjkzNzUgMjAuOTg4MiAyMi4wMDE5IDIxLjIzNzUgMjIuMDAyIDIxLjQ5MUMyMi4wMDI5IDIxLjY4ODcgMjEuOTY0NyAyMS44ODQ3IDIxLjg4OTYgMjIuMDY3NkMyMS44MTQ2IDIyLjI1MDYgMjEuNzA0IDIyLjQxNjggMjEuNTY0NCAyMi41NTY5QzIxLjQyNDggMjIuNjk3IDIxLjI1ODkgMjIuODA4IDIxLjA3NjMgMjIuODgzN0MyMC44OTM2IDIyLjk1OTQgMjAuNjk3NyAyMi45OTgzIDIwLjUgMjIuOTk4QzIwLjMwMjMgMjIuOTk4MyAyMC4xMDY2IDIyLjk1OTUgMTkuOTI0IDIyLjg4MzhDMTkuNzQxNCAyMi44MDgyIDE5LjU3NTUgMjIuNjk3MiAxOS40MzU5IDIyLjU1NzNDMTkuMjk2MyAyMi40MTczIDE5LjE4NTggMjIuMjUxMSAxOS4xMTA2IDIyLjA2ODNDMTkuMDM1NSAyMS44ODU1IDE4Ljk5NzIgMjEuNjg5NyAxOC45OTggMjEuNDkySDE5Wk0xNSAxNy41MDVWMTcuNDkyQzE0Ljk5ODQgMTcuMzYwOCAxNC45NDUzIDE3LjIzNTQgMTQuODUyMiAxNy4xNDNDMTQuNzU5IDE3LjA1MDYgMTQuNjMzMiAxNi45OTg1IDE0LjUwMiAxNi45OThIOS40OThDOS4zNjY3NyAxNi45OTg1IDkuMjQxMDEgMTcuMDUwNiA5LjE0Nzg0IDE3LjE0M0M5LjA1NDY3IDE3LjIzNTQgOS4wMDE1NyAxNy4zNjA4IDkgMTcuNDkyVjE3LjUwNUM5LjAwMTgzIDE3LjYzNjEgOS4wNTUwNSAxNy43NjExIDkuMTQ4MTkgMTcuODUzM0M5LjI0MTMyIDE3Ljk0NTUgOS4zNjY5NCAxNy45OTc1IDkuNDk4IDE3Ljk5OEgxNC41MDJDMTQuNjMzMSAxNy45OTc1IDE0Ljc1ODcgMTcuOTQ1NSAxNC44NTE4IDE3Ljg1MzNDMTQuOTQ1IDE3Ljc2MTEgMTQuOTk4MiAxNy42MzYxIDE1IDE3LjUwNVpNMTUgMTMuNTA1VjEzLjQ5MkMxNC45OTgyIDEzLjM2MSAxNC45NDUgMTMuMjM1OSAxNC44NTE4IDEzLjE0MzdDMTQuNzU4NyAxMy4wNTE1IDE0LjYzMzEgMTIuOTk5NSAxNC41MDIgMTIuOTk5SDkuNDk4QzkuMzY2OTQgMTIuOTk5NSA5LjI0MTMyIDEzLjA1MTUgOS4xNDgxOSAxMy4xNDM3QzkuMDU1MDUgMTMuMjM1OSA5LjAwMTgzIDEzLjM2MSA5IDEzLjQ5MlYxMy41MDZDOS4wMDIwOSAxMy42MzY5IDkuMDU1NDIgMTMuNzYxNyA5LjE0ODUzIDEzLjg1MzdDOS4yNDE2NCAxMy45NDU3IDkuMzY3MTEgMTMuOTk3NSA5LjQ5OCAxMy45OThIMTQuNTAyQzE0LjYzMjkgMTMuOTk3NSAxNC43NTg0IDEzLjk0NTcgMTQuODUxNSAxMy44NTM3QzE0Ljk0NDYgMTMuNzYxNyAxNC45OTc5IDEzLjYzNjkgMTUgMTMuNTA2VjEzLjUwNVoiIGZpbGw9IndoaXRlIi8+JiN4YTs8L3N2Zz4=;labelPosition=center;align=center;" parent="1" vertex="1">
          <mxGeometry x="469" y="605" width="46" height="46" as="geometry" />
        </mxCell>
        <mxCell id="QUan4tAfIU0XuDufGxuR-13" style="edgeStyle=orthogonalEdgeStyle;rounded=0;orthogonalLoop=1;jettySize=auto;html=1;exitX=1;exitY=0.5;exitDx=0;exitDy=0;" edge="1" parent="1" source="_PeniUug22jsn_E3Xyb6-76" target="QUan4tAfIU0XuDufGxuR-12">
          <mxGeometry relative="1" as="geometry" />
        </mxCell>
        <mxCell id="_PeniUug22jsn_E3Xyb6-76" value="&lt;div&gt;&lt;span style=&quot;background-color: transparent; color: light-dark(rgb(51, 51, 51), rgb(193, 193, 193));&quot;&gt;Service &lt;/span&gt;&lt;b style=&quot;background-color: transparent; color: light-dark(rgb(51, 51, 51), rgb(193, 193, 193));&quot;&gt;Orders&lt;/b&gt;&lt;br&gt;&lt;/div&gt;" style="rounded=1;whiteSpace=wrap;html=1;fillColor=#f5f5f5;fontColor=#333333;strokeColor=#666666;" parent="1" vertex="1">
          <mxGeometry x="81" y="256" width="120" height="60" as="geometry" />
        </mxCell>
        <mxCell id="QUan4tAfIU0XuDufGxuR-10" style="edgeStyle=orthogonalEdgeStyle;rounded=0;orthogonalLoop=1;jettySize=auto;html=1;exitX=1;exitY=0.5;exitDx=0;exitDy=0;" edge="1" parent="1" source="_PeniUug22jsn_E3Xyb6-78" target="QUan4tAfIU0XuDufGxuR-9">
          <mxGeometry relative="1" as="geometry" />
        </mxCell>
        <mxCell id="_PeniUug22jsn_E3Xyb6-78" value="Service &lt;b&gt;Cart&lt;/b&gt;" style="rounded=1;whiteSpace=wrap;html=1;fillColor=#f5f5f5;fontColor=#333333;strokeColor=#666666;" parent="1" vertex="1">
          <mxGeometry x="209" y="341" width="120" height="60" as="geometry" />
        </mxCell>
        <mxCell id="_PeniUug22jsn_E3Xyb6-83" value="Service &lt;b&gt;Catalog&lt;/b&gt;" style="rounded=1;whiteSpace=wrap;html=1;fillColor=#f5f5f5;fontColor=#333333;strokeColor=#666666;" parent="1" vertex="1">
          <mxGeometry x="442" y="444" width="120" height="60" as="geometry" />
        </mxCell>
        <mxCell id="_PeniUug22jsn_E3Xyb6-87" value="Services Data Relationships" style="text;html=1;align=center;verticalAlign=middle;resizable=0;points=[];autosize=1;strokeColor=none;fillColor=none;fontSize=30;fontStyle=1" parent="1" vertex="1">
          <mxGeometry x="71" y="26" width="393" height="48" as="geometry" />
        </mxCell>
        <mxCell id="_PeniUug22jsn_E3Xyb6-91" value="&lt;div&gt;&lt;span style=&quot;background-color: transparent; color: light-dark(rgb(51, 51, 51), rgb(193, 193, 193));&quot;&gt;Service &lt;/span&gt;&lt;b style=&quot;background-color: transparent; color: light-dark(rgb(51, 51, 51), rgb(193, 193, 193));&quot;&gt;Feedback&lt;/b&gt;&lt;br&gt;&lt;/div&gt;" style="rounded=1;whiteSpace=wrap;html=1;fillColor=#f5f5f5;fontColor=#333333;strokeColor=#666666;" parent="1" vertex="1">
          <mxGeometry x="250" y="428" width="120" height="60" as="geometry" />
        </mxCell>
        <mxCell id="QUan4tAfIU0XuDufGxuR-1" style="edgeStyle=orthogonalEdgeStyle;rounded=0;orthogonalLoop=1;jettySize=auto;html=1;exitX=1;exitY=0.5;exitDx=0;exitDy=0;" edge="1" parent="1" source="_PeniUug22jsn_E3Xyb6-94" target="_PeniUug22jsn_E3Xyb6-74">
          <mxGeometry relative="1" as="geometry" />
        </mxCell>
        <mxCell id="_PeniUug22jsn_E3Xyb6-94" value="Service &lt;b&gt;Products&lt;/b&gt;" style="rounded=1;whiteSpace=wrap;html=1;fillColor=#f5f5f5;fontColor=#333333;strokeColor=#666666;" parent="1" vertex="1">
          <mxGeometry x="239" y="598" width="120" height="60" as="geometry" />
        </mxCell>
        <mxCell id="_PeniUug22jsn_E3Xyb6-96" value="Service &lt;b&gt;Auth&lt;/b&gt;" style="rounded=1;whiteSpace=wrap;html=1;fillColor=#f5f5f5;fontColor=#333333;strokeColor=#666666;" parent="1" vertex="1">
          <mxGeometry x="630" y="324" width="120" height="60" as="geometry" />
        </mxCell>
        <mxCell id="QUan4tAfIU0XuDufGxuR-17" style="edgeStyle=orthogonalEdgeStyle;rounded=0;orthogonalLoop=1;jettySize=auto;html=1;exitX=1;exitY=0.5;exitDx=0;exitDy=0;entryX=0;entryY=0.5;entryDx=0;entryDy=0;" edge="1" parent="1" source="_PeniUug22jsn_E3Xyb6-97" target="QUan4tAfIU0XuDufGxuR-16">
          <mxGeometry relative="1" as="geometry" />
        </mxCell>
        <mxCell id="_PeniUug22jsn_E3Xyb6-97" value="&lt;div&gt;&lt;span style=&quot;background-color: transparent; color: light-dark(rgb(51, 51, 51), rgb(193, 193, 193));&quot;&gt;Service &lt;/span&gt;&lt;b style=&quot;background-color: transparent; color: light-dark(rgb(51, 51, 51), rgb(193, 193, 193));&quot;&gt;Payments&lt;/b&gt;&lt;br&gt;&lt;/div&gt;" style="rounded=1;whiteSpace=wrap;html=1;fillColor=#f5f5f5;fontColor=#333333;strokeColor=#666666;" parent="1" vertex="1">
          <mxGeometry x="185" y="141" width="120" height="60" as="geometry" />
        </mxCell>
        <mxCell id="_PeniUug22jsn_E3Xyb6-101" style="edgeStyle=orthogonalEdgeStyle;rounded=0;orthogonalLoop=1;jettySize=auto;html=1;exitX=0.5;exitY=0;exitDx=0;exitDy=0;exitPerimeter=0;dashed=1;" parent="1" source="_PeniUug22jsn_E3Xyb6-100" target="_PeniUug22jsn_E3Xyb6-96" edge="1">
          <mxGeometry relative="1" as="geometry" />
        </mxCell>
        <mxCell id="_PeniUug22jsn_E3Xyb6-100" value="Communication between services is done via access tokens issued by service" style="shape=note;whiteSpace=wrap;html=1;backgroundOutline=1;darkOpacity=0.05;size=20;dashed=1;" parent="1" vertex="1">
          <mxGeometry x="630" y="451" width="120" height="126" as="geometry" />
        </mxCell>
        <mxCell id="QUan4tAfIU0XuDufGxuR-5" style="edgeStyle=orthogonalEdgeStyle;rounded=0;orthogonalLoop=1;jettySize=auto;html=1;entryX=0;entryY=0.5;entryDx=0;entryDy=0;" edge="1" parent="1" source="QUan4tAfIU0XuDufGxuR-2" target="_PeniUug22jsn_E3Xyb6-83">
          <mxGeometry relative="1" as="geometry">
            <Array as="points">
              <mxPoint x="422" y="527" />
              <mxPoint x="422" y="474" />
            </Array>
          </mxGeometry>
        </mxCell>
        <mxCell id="QUan4tAfIU0XuDufGxuR-6" style="edgeStyle=orthogonalEdgeStyle;rounded=0;orthogonalLoop=1;jettySize=auto;html=1;entryX=0;entryY=0.5;entryDx=0;entryDy=0;" edge="1" parent="1" source="QUan4tAfIU0XuDufGxuR-2" target="_PeniUug22jsn_E3Xyb6-91">
          <mxGeometry relative="1" as="geometry">
            <Array as="points">
              <mxPoint x="230" y="548" />
              <mxPoint x="230" y="458" />
            </Array>
          </mxGeometry>
        </mxCell>
        <mxCell id="QUan4tAfIU0XuDufGxuR-7" style="edgeStyle=orthogonalEdgeStyle;rounded=0;orthogonalLoop=1;jettySize=auto;html=1;entryX=0;entryY=0.75;entryDx=0;entryDy=0;" edge="1" parent="1" source="QUan4tAfIU0XuDufGxuR-2" target="_PeniUug22jsn_E3Xyb6-78">
          <mxGeometry relative="1" as="geometry">
            <Array as="points">
              <mxPoint x="189" y="563" />
              <mxPoint x="189" y="386" />
            </Array>
          </mxGeometry>
        </mxCell>
        <mxCell id="QUan4tAfIU0XuDufGxuR-8" style="edgeStyle=orthogonalEdgeStyle;rounded=0;orthogonalLoop=1;jettySize=auto;html=1;entryX=0;entryY=0.75;entryDx=0;entryDy=0;" edge="1" parent="1" source="QUan4tAfIU0XuDufGxuR-2" target="_PeniUug22jsn_E3Xyb6-76">
          <mxGeometry relative="1" as="geometry">
            <Array as="points">
              <mxPoint x="41" y="577" />
              <mxPoint x="41" y="301" />
            </Array>
          </mxGeometry>
        </mxCell>
        <mxCell id="QUan4tAfIU0XuDufGxuR-2" value="" style="line;strokeWidth=4;direction=south;html=1;perimeter=backbonePerimeter;points=[];outlineConnect=0;" vertex="1" parent="1">
          <mxGeometry x="466" y="518" width="45" height="73" as="geometry" />
        </mxCell>
        <mxCell id="QUan4tAfIU0XuDufGxuR-11" style="edgeStyle=orthogonalEdgeStyle;rounded=0;orthogonalLoop=1;jettySize=auto;html=1;exitX=1;exitY=0.5;exitDx=0;exitDy=0;" edge="1" parent="1" source="QUan4tAfIU0XuDufGxuR-9">
          <mxGeometry relative="1" as="geometry">
            <mxPoint x="83" y="286" as="targetPoint" />
            <Array as="points">
              <mxPoint x="448" y="333" />
              <mxPoint x="448" y="100" />
              <mxPoint x="39" y="100" />
              <mxPoint x="39" y="286" />
            </Array>
          </mxGeometry>
        </mxCell>
        <mxCell id="QUan4tAfIU0XuDufGxuR-9" value="Data Streams" style="shape=image;verticalLabelPosition=bottom;labelBackgroundColor=#ffffff;verticalAlign=top;aspect=fixed;imageAspect=0;image=data:image/svg+xml,PHN2ZyB4bWxucz0iaHR0cDovL3d3dy53My5vcmcvMjAwMC9zdmciIHdpZHRoPSIzMiIgaGVpZ2h0PSIzMiIgdmlld0JveD0iMCAwIDMyIDMyIiBmaWxsPSJub25lIj4mI3hhOzxwYXRoIGQ9Ik0wIDE2QzAgNy4xNjM0NCA3LjE2MzQ0IDAgMTYgMEMyNC44MzY2IDAgMzIgNy4xNjM0NCAzMiAxNkMzMiAyNC44MzY2IDI0LjgzNjYgMzIgMTYgMzJDNy4xNjM0NCAzMiAwIDI0LjgzNjYgMCAxNloiIGZpbGw9IiM1MjgyRkYiLz4mI3hhOzxwYXRoIGZpbGwtcnVsZT0iZXZlbm9kZCIgY2xpcC1ydWxlPSJldmVub2RkIiBkPSJNMTkgMjEuNDkyQzE5IDIxLjI2NSAxOS4wNTEgMjEuMDUyIDE5LjE0NiAyMC44NTJMMTcuMjk4IDE4Ljk5OEgxNlYxOS42NzhDMTYgMjAuNDEyIDE1LjQwOCAyMC45OTggMTQuNjc5IDIwLjk5OEg5LjMyQzguNTkxIDIwLjk5OCA4IDIwLjQxMiA4IDE5LjY3OFYxMS4zMTlDOCAxMC41ODYgOC41OTIgOS45OTkwMSA5LjMyMSA5Ljk5OTAxSDE0LjY4QzE1LjQxIDkuOTk5MDEgMTYuMDAxIDEwLjU4NiAxNi4wMDEgMTEuMzE5VjExLjk5OUgxNy4yOTlMMTkuMTQ2IDEwLjE0NkMxOS4wMzYxIDkuOTE3NDkgMTguOTg2IDkuNjY0OCAxOS4wMDA0IDkuNDExNjNDMTkuMDE0OSA5LjE1ODQ2IDE5LjA5MzQgOC45MTMxMiAxOS4yMjg3IDguNjk4NjFDMTkuMzYzOSA4LjQ4NDEgMTkuNTUxNCA4LjMwNzQ3IDE5Ljc3MzYgOC4xODUyN0MxOS45OTU4IDguMDYzMDggMjAuMjQ1NCA3Ljk5OTMzIDIwLjQ5OSA4LjAwMDAxQzIwLjcyNDIgNy45OTk5MSAyMC45NDY2IDguMDUwNTQgMjEuMTQ5NiA4LjE0ODEzQzIxLjM1MjUgOC4yNDU3MiAyMS41MzA5IDguMzg3NzYgMjEuNjcxNSA4LjU2MzcyQzIxLjgxMjEgOC43Mzk2OCAyMS45MTEyIDguOTQ1MDMgMjEuOTYxNiA5LjE2NDU1QzIyLjAxMiA5LjM4NDA3IDIyLjAxMjMgOS42MTIxMSAyMS45NjI1IDkuODMxNzVDMjEuOTEyNiAxMC4wNTE0IDIxLjgxNCAxMC4yNTcgMjEuNjczOSAxMC40MzMzQzIxLjUzMzcgMTAuNjA5NiAyMS4zNTU3IDEwLjc1MjEgMjEuMTUzIDEwLjg1MDJDMjAuOTUwMiAxMC45NDgzIDIwLjcyOCAxMC45OTk1IDIwLjUwMjggMTFDMjAuMjc3NiAxMS4wMDA1IDIwLjA1NTEgMTAuOTUwMiAxOS44NTIgMTAuODUzTDE3Ljg2IDEyLjg1M0MxNy43NjU4IDEyLjk0NjIgMTcuNjM4NSAxMi45OTgzIDE3LjUwNiAxMi45OThIMTZWMTQuOTk4SDIxLjA4MkMyMS4yODggMTQuNDExIDIxLjg0NCAxMy45OTggMjIuNDk4IDEzLjk5OEMyMi44OTU4IDEzLjk5OCAyMy4yNzc0IDE0LjE1NiAyMy41NTg3IDE0LjQzNzNDMjMuODQgMTQuNzE4NiAyMy45OTggMTUuMTAwMiAyMy45OTggMTUuNDk4QzIzLjk5OCAxNS44OTU4IDIzLjg0IDE2LjI3NzQgMjMuNTU4NyAxNi41NTg3QzIzLjI3NzQgMTYuODQgMjIuODk1OCAxNi45OTggMjIuNDk4IDE2Ljk5OEMyMS44NDQgMTYuOTk4IDIxLjI4OCAxNi41ODQgMjEuMDgyIDE1Ljk5OEgxNlYxNy45OThIMTcuNTA2QzE3LjYzOCAxNy45OTggMTcuNzY2IDE4LjA1MSAxNy44NiAxOC4xNDRMMTkuODUzIDIwLjE0NEMyMC4wODEyIDIwLjAzMzYgMjAuMzMzNiAxOS45ODMgMjAuNTg2NyAxOS45OTY4QzIwLjgzOTggMjAuMDEwNiAyMS4wODUzIDIwLjA4ODUgMjEuMzAwMSAyMC4yMjMxQzIxLjUxNDggMjAuMzU3OCAyMS42OTE5IDIwLjU0NDcgMjEuODE0NyAyMC43NjY1QzIxLjkzNzUgMjAuOTg4MiAyMi4wMDE5IDIxLjIzNzUgMjIuMDAyIDIxLjQ5MUMyMi4wMDI5IDIxLjY4ODcgMjEuOTY0NyAyMS44ODQ3IDIxLjg4OTYgMjIuMDY3NkMyMS44MTQ2IDIyLjI1MDYgMjEuNzA0IDIyLjQxNjggMjEuNTY0NCAyMi41NTY5QzIxLjQyNDggMjIuNjk3IDIxLjI1ODkgMjIuODA4IDIxLjA3NjMgMjIuODgzN0MyMC44OTM2IDIyLjk1OTQgMjAuNjk3NyAyMi45OTgzIDIwLjUgMjIuOTk4QzIwLjMwMjMgMjIuOTk4MyAyMC4xMDY2IDIyLjk1OTUgMTkuOTI0IDIyLjg4MzhDMTkuNzQxNCAyMi44MDgyIDE5LjU3NTUgMjIuNjk3MiAxOS40MzU5IDIyLjU1NzNDMTkuMjk2MyAyMi40MTczIDE5LjE4NTggMjIuMjUxMSAxOS4xMTA2IDIyLjA2ODNDMTkuMDM1NSAyMS44ODU1IDE4Ljk5NzIgMjEuNjg5NyAxOC45OTggMjEuNDkySDE5Wk0xNSAxNy41MDVWMTcuNDkyQzE0Ljk5ODQgMTcuMzYwOCAxNC45NDUzIDE3LjIzNTQgMTQuODUyMiAxNy4xNDNDMTQuNzU5IDE3LjA1MDYgMTQuNjMzMiAxNi45OTg1IDE0LjUwMiAxNi45OThIOS40OThDOS4zNjY3NyAxNi45OTg1IDkuMjQxMDEgMTcuMDUwNiA5LjE0Nzg0IDE3LjE0M0M5LjA1NDY3IDE3LjIzNTQgOS4wMDE1NyAxNy4zNjA4IDkgMTcuNDkyVjE3LjUwNUM5LjAwMTgzIDE3LjYzNjEgOS4wNTUwNSAxNy43NjExIDkuMTQ4MTkgMTcuODUzM0M5LjI0MTMyIDE3Ljk0NTUgOS4zNjY5NCAxNy45OTc1IDkuNDk4IDE3Ljk5OEgxNC41MDJDMTQuNjMzMSAxNy45OTc1IDE0Ljc1ODcgMTcuOTQ1NSAxNC44NTE4IDE3Ljg1MzNDMTQuOTQ1IDE3Ljc2MTEgMTQuOTk4MiAxNy42MzYxIDE1IDE3LjUwNVpNMTUgMTMuNTA1VjEzLjQ5MkMxNC45OTgyIDEzLjM2MSAxNC45NDUgMTMuMjM1OSAxNC44NTE4IDEzLjE0MzdDMTQuNzU4NyAxMy4wNTE1IDE0LjYzMzEgMTIuOTk5NSAxNC41MDIgMTIuOTk5SDkuNDk4QzkuMzY2OTQgMTIuOTk5NSA5LjI0MTMyIDEzLjA1MTUgOS4xNDgxOSAxMy4xNDM3QzkuMDU1MDUgMTMuMjM1OSA5LjAwMTgzIDEzLjM2MSA5IDEzLjQ5MlYxMy41MDZDOS4wMDIwOSAxMy42MzY5IDkuMDU1NDIgMTMuNzYxNyA5LjE0ODUzIDEzLjg1MzdDOS4yNDE2NCAxMy45NDU3IDkuMzY3MTEgMTMuOTk3NSA5LjQ5OCAxMy45OThIMTQuNTAyQzE0LjYzMjkgMTMuOTk3NSAxNC43NTg0IDEzLjk0NTcgMTQuODUxNSAxMy44NTM3QzE0Ljk0NDYgMTMuNzYxNyAxNC45OTc5IDEzLjYzNjkgMTUgMTMuNTA2VjEzLjUwNVoiIGZpbGw9IndoaXRlIi8+JiN4YTs8L3N2Zz4=;labelPosition=center;align=center;" vertex="1" parent="1">
          <mxGeometry x="367" y="310" width="46" height="46" as="geometry" />
        </mxCell>
        <mxCell id="QUan4tAfIU0XuDufGxuR-14" style="edgeStyle=orthogonalEdgeStyle;rounded=0;orthogonalLoop=1;jettySize=auto;html=1;exitX=1;exitY=0.75;exitDx=0;exitDy=0;entryX=0;entryY=0.25;entryDx=0;entryDy=0;" edge="1" parent="1" source="QUan4tAfIU0XuDufGxuR-12" target="_PeniUug22jsn_E3Xyb6-78">
          <mxGeometry relative="1" as="geometry">
            <Array as="points">
              <mxPoint x="310" y="276" />
              <mxPoint x="310" y="330" />
              <mxPoint x="189" y="330" />
              <mxPoint x="189" y="356" />
            </Array>
          </mxGeometry>
        </mxCell>
        <mxCell id="QUan4tAfIU0XuDufGxuR-15" style="edgeStyle=orthogonalEdgeStyle;rounded=0;orthogonalLoop=1;jettySize=auto;html=1;exitX=1;exitY=0.5;exitDx=0;exitDy=0;entryX=0;entryY=0.5;entryDx=0;entryDy=0;" edge="1" parent="1" source="QUan4tAfIU0XuDufGxuR-12" target="_PeniUug22jsn_E3Xyb6-97">
          <mxGeometry relative="1" as="geometry" />
        </mxCell>
        <mxCell id="QUan4tAfIU0XuDufGxuR-12" value="Data Streams" style="shape=image;verticalLabelPosition=bottom;labelBackgroundColor=#ffffff;verticalAlign=top;aspect=fixed;imageAspect=0;image=data:image/svg+xml,PHN2ZyB4bWxucz0iaHR0cDovL3d3dy53My5vcmcvMjAwMC9zdmciIHdpZHRoPSIzMiIgaGVpZ2h0PSIzMiIgdmlld0JveD0iMCAwIDMyIDMyIiBmaWxsPSJub25lIj4mI3hhOzxwYXRoIGQ9Ik0wIDE2QzAgNy4xNjM0NCA3LjE2MzQ0IDAgMTYgMEMyNC44MzY2IDAgMzIgNy4xNjM0NCAzMiAxNkMzMiAyNC44MzY2IDI0LjgzNjYgMzIgMTYgMzJDNy4xNjM0NCAzMiAwIDI0LjgzNjYgMCAxNloiIGZpbGw9IiM1MjgyRkYiLz4mI3hhOzxwYXRoIGZpbGwtcnVsZT0iZXZlbm9kZCIgY2xpcC1ydWxlPSJldmVub2RkIiBkPSJNMTkgMjEuNDkyQzE5IDIxLjI2NSAxOS4wNTEgMjEuMDUyIDE5LjE0NiAyMC44NTJMMTcuMjk4IDE4Ljk5OEgxNlYxOS42NzhDMTYgMjAuNDEyIDE1LjQwOCAyMC45OTggMTQuNjc5IDIwLjk5OEg5LjMyQzguNTkxIDIwLjk5OCA4IDIwLjQxMiA4IDE5LjY3OFYxMS4zMTlDOCAxMC41ODYgOC41OTIgOS45OTkwMSA5LjMyMSA5Ljk5OTAxSDE0LjY4QzE1LjQxIDkuOTk5MDEgMTYuMDAxIDEwLjU4NiAxNi4wMDEgMTEuMzE5VjExLjk5OUgxNy4yOTlMMTkuMTQ2IDEwLjE0NkMxOS4wMzYxIDkuOTE3NDkgMTguOTg2IDkuNjY0OCAxOS4wMDA0IDkuNDExNjNDMTkuMDE0OSA5LjE1ODQ2IDE5LjA5MzQgOC45MTMxMiAxOS4yMjg3IDguNjk4NjFDMTkuMzYzOSA4LjQ4NDEgMTkuNTUxNCA4LjMwNzQ3IDE5Ljc3MzYgOC4xODUyN0MxOS45OTU4IDguMDYzMDggMjAuMjQ1NCA3Ljk5OTMzIDIwLjQ5OSA4LjAwMDAxQzIwLjcyNDIgNy45OTk5MSAyMC45NDY2IDguMDUwNTQgMjEuMTQ5NiA4LjE0ODEzQzIxLjM1MjUgOC4yNDU3MiAyMS41MzA5IDguMzg3NzYgMjEuNjcxNSA4LjU2MzcyQzIxLjgxMjEgOC43Mzk2OCAyMS45MTEyIDguOTQ1MDMgMjEuOTYxNiA5LjE2NDU1QzIyLjAxMiA5LjM4NDA3IDIyLjAxMjMgOS42MTIxMSAyMS45NjI1IDkuODMxNzVDMjEuOTEyNiAxMC4wNTE0IDIxLjgxNCAxMC4yNTcgMjEuNjczOSAxMC40MzMzQzIxLjUzMzcgMTAuNjA5NiAyMS4zNTU3IDEwLjc1MjEgMjEuMTUzIDEwLjg1MDJDMjAuOTUwMiAxMC45NDgzIDIwLjcyOCAxMC45OTk1IDIwLjUwMjggMTFDMjAuMjc3NiAxMS4wMDA1IDIwLjA1NTEgMTAuOTUwMiAxOS44NTIgMTAuODUzTDE3Ljg2IDEyLjg1M0MxNy43NjU4IDEyLjk0NjIgMTcuNjM4NSAxMi45OTgzIDE3LjUwNiAxMi45OThIMTZWMTQuOTk4SDIxLjA4MkMyMS4yODggMTQuNDExIDIxLjg0NCAxMy45OTggMjIuNDk4IDEzLjk5OEMyMi44OTU4IDEzLjk5OCAyMy4yNzc0IDE0LjE1NiAyMy41NTg3IDE0LjQzNzNDMjMuODQgMTQuNzE4NiAyMy45OTggMTUuMTAwMiAyMy45OTggMTUuNDk4QzIzLjk5OCAxNS44OTU4IDIzLjg0IDE2LjI3NzQgMjMuNTU4NyAxNi41NTg3QzIzLjI3NzQgMTYuODQgMjIuODk1OCAxNi45OTggMjIuNDk4IDE2Ljk5OEMyMS44NDQgMTYuOTk4IDIxLjI4OCAxNi41ODQgMjEuMDgyIDE1Ljk5OEgxNlYxNy45OThIMTcuNTA2QzE3LjYzOCAxNy45OTggMTcuNzY2IDE4LjA1MSAxNy44NiAxOC4xNDRMMTkuODUzIDIwLjE0NEMyMC4wODEyIDIwLjAzMzYgMjAuMzMzNiAxOS45ODMgMjAuNTg2NyAxOS45OTY4QzIwLjgzOTggMjAuMDEwNiAyMS4wODUzIDIwLjA4ODUgMjEuMzAwMSAyMC4yMjMxQzIxLjUxNDggMjAuMzU3OCAyMS42OTE5IDIwLjU0NDcgMjEuODE0NyAyMC43NjY1QzIxLjkzNzUgMjAuOTg4MiAyMi4wMDE5IDIxLjIzNzUgMjIuMDAyIDIxLjQ5MUMyMi4wMDI5IDIxLjY4ODcgMjEuOTY0NyAyMS44ODQ3IDIxLjg4OTYgMjIuMDY3NkMyMS44MTQ2IDIyLjI1MDYgMjEuNzA0IDIyLjQxNjggMjEuNTY0NCAyMi41NTY5QzIxLjQyNDggMjIuNjk3IDIxLjI1ODkgMjIuODA4IDIxLjA3NjMgMjIuODgzN0MyMC44OTM2IDIyLjk1OTQgMjAuNjk3NyAyMi45OTgzIDIwLjUgMjIuOTk4QzIwLjMwMjMgMjIuOTk4MyAyMC4xMDY2IDIyLjk1OTUgMTkuOTI0IDIyLjg4MzhDMTkuNzQxNCAyMi44MDgyIDE5LjU3NTUgMjIuNjk3MiAxOS40MzU5IDIyLjU1NzNDMTkuMjk2MyAyMi40MTczIDE5LjE4NTggMjIuMjUxMSAxOS4xMTA2IDIyLjA2ODNDMTkuMDM1NSAyMS44ODU1IDE4Ljk5NzIgMjEuNjg5NyAxOC45OTggMjEuNDkySDE5Wk0xNSAxNy41MDVWMTcuNDkyQzE0Ljk5ODQgMTcuMzYwOCAxNC45NDUzIDE3LjIzNTQgMTQuODUyMiAxNy4xNDNDMTQuNzU5IDE3LjA1MDYgMTQuNjMzMiAxNi45OTg1IDE0LjUwMiAxNi45OThIOS40OThDOS4zNjY3NyAxNi45OTg1IDkuMjQxMDEgMTcuMDUwNiA5LjE0Nzg0IDE3LjE0M0M5LjA1NDY3IDE3LjIzNTQgOS4wMDE1NyAxNy4zNjA4IDkgMTcuNDkyVjE3LjUwNUM5LjAwMTgzIDE3LjYzNjEgOS4wNTUwNSAxNy43NjExIDkuMTQ4MTkgMTcuODUzM0M5LjI0MTMyIDE3Ljk0NTUgOS4zNjY5NCAxNy45OTc1IDkuNDk4IDE3Ljk5OEgxNC41MDJDMTQuNjMzMSAxNy45OTc1IDE0Ljc1ODcgMTcuOTQ1NSAxNC44NTE4IDE3Ljg1MzNDMTQuOTQ1IDE3Ljc2MTEgMTQuOTk4MiAxNy42MzYxIDE1IDE3LjUwNVpNMTUgMTMuNTA1VjEzLjQ5MkMxNC45OTgyIDEzLjM2MSAxNC45NDUgMTMuMjM1OSAxNC44NTE4IDEzLjE0MzdDMTQuNzU4NyAxMy4wNTE1IDE0LjYzMzEgMTIuOTk5NSAxNC41MDIgMTIuOTk5SDkuNDk4QzkuMzY2OTQgMTIuOTk5NSA5LjI0MTMyIDEzLjA1MTUgOS4xNDgxOSAxMy4xNDM3QzkuMDU1MDUgMTMuMjM1OSA5LjAwMTgzIDEzLjM2MSA5IDEzLjQ5MlYxMy41MDZDOS4wMDIwOSAxMy42MzY5IDkuMDU1NDIgMTMuNzYxNyA5LjE0ODUzIDEzLjg1MzdDOS4yNDE2NCAxMy45NDU3IDkuMzY3MTEgMTMuOTk3NSA5LjQ5OCAxMy45OThIMTQuNTAyQzE0LjYzMjkgMTMuOTk3NSAxNC43NTg0IDEzLjk0NTcgMTQuODUxNSAxMy44NTM3QzE0Ljk0NDYgMTMuNzYxNyAxNC45OTc5IDEzLjYzNjkgMTUgMTMuNTA2VjEzLjUwNVoiIGZpbGw9IndoaXRlIi8+JiN4YTs8L3N2Zz4=;labelPosition=center;align=center;" vertex="1" parent="1">
          <mxGeometry x="248" y="241" width="46" height="46" as="geometry" />
        </mxCell>
        <mxCell id="QUan4tAfIU0XuDufGxuR-19" style="edgeStyle=orthogonalEdgeStyle;rounded=0;orthogonalLoop=1;jettySize=auto;html=1;exitX=1;exitY=0.5;exitDx=0;exitDy=0;entryX=0;entryY=0.25;entryDx=0;entryDy=0;" edge="1" parent="1" source="QUan4tAfIU0XuDufGxuR-16" target="_PeniUug22jsn_E3Xyb6-76">
          <mxGeometry relative="1" as="geometry">
            <Array as="points">
              <mxPoint x="409" y="143" />
              <mxPoint x="409" y="111" />
              <mxPoint x="61" y="111" />
              <mxPoint x="61" y="271" />
            </Array>
          </mxGeometry>
        </mxCell>
        <mxCell id="QUan4tAfIU0XuDufGxuR-16" value="Data Streams" style="shape=image;verticalLabelPosition=bottom;labelBackgroundColor=#ffffff;verticalAlign=top;aspect=fixed;imageAspect=0;image=data:image/svg+xml,PHN2ZyB4bWxucz0iaHR0cDovL3d3dy53My5vcmcvMjAwMC9zdmciIHdpZHRoPSIzMiIgaGVpZ2h0PSIzMiIgdmlld0JveD0iMCAwIDMyIDMyIiBmaWxsPSJub25lIj4mI3hhOzxwYXRoIGQ9Ik0wIDE2QzAgNy4xNjM0NCA3LjE2MzQ0IDAgMTYgMEMyNC44MzY2IDAgMzIgNy4xNjM0NCAzMiAxNkMzMiAyNC44MzY2IDI0LjgzNjYgMzIgMTYgMzJDNy4xNjM0NCAzMiAwIDI0LjgzNjYgMCAxNloiIGZpbGw9IiM1MjgyRkYiLz4mI3hhOzxwYXRoIGZpbGwtcnVsZT0iZXZlbm9kZCIgY2xpcC1ydWxlPSJldmVub2RkIiBkPSJNMTkgMjEuNDkyQzE5IDIxLjI2NSAxOS4wNTEgMjEuMDUyIDE5LjE0NiAyMC44NTJMMTcuMjk4IDE4Ljk5OEgxNlYxOS42NzhDMTYgMjAuNDEyIDE1LjQwOCAyMC45OTggMTQuNjc5IDIwLjk5OEg5LjMyQzguNTkxIDIwLjk5OCA4IDIwLjQxMiA4IDE5LjY3OFYxMS4zMTlDOCAxMC41ODYgOC41OTIgOS45OTkwMSA5LjMyMSA5Ljk5OTAxSDE0LjY4QzE1LjQxIDkuOTk5MDEgMTYuMDAxIDEwLjU4NiAxNi4wMDEgMTEuMzE5VjExLjk5OUgxNy4yOTlMMTkuMTQ2IDEwLjE0NkMxOS4wMzYxIDkuOTE3NDkgMTguOTg2IDkuNjY0OCAxOS4wMDA0IDkuNDExNjNDMTkuMDE0OSA5LjE1ODQ2IDE5LjA5MzQgOC45MTMxMiAxOS4yMjg3IDguNjk4NjFDMTkuMzYzOSA4LjQ4NDEgMTkuNTUxNCA4LjMwNzQ3IDE5Ljc3MzYgOC4xODUyN0MxOS45OTU4IDguMDYzMDggMjAuMjQ1NCA3Ljk5OTMzIDIwLjQ5OSA4LjAwMDAxQzIwLjcyNDIgNy45OTk5MSAyMC45NDY2IDguMDUwNTQgMjEuMTQ5NiA4LjE0ODEzQzIxLjM1MjUgOC4yNDU3MiAyMS41MzA5IDguMzg3NzYgMjEuNjcxNSA4LjU2MzcyQzIxLjgxMjEgOC43Mzk2OCAyMS45MTEyIDguOTQ1MDMgMjEuOTYxNiA5LjE2NDU1QzIyLjAxMiA5LjM4NDA3IDIyLjAxMjMgOS42MTIxMSAyMS45NjI1IDkuODMxNzVDMjEuOTEyNiAxMC4wNTE0IDIxLjgxNCAxMC4yNTcgMjEuNjczOSAxMC40MzMzQzIxLjUzMzcgMTAuNjA5NiAyMS4zNTU3IDEwLjc1MjEgMjEuMTUzIDEwLjg1MDJDMjAuOTUwMiAxMC45NDgzIDIwLjcyOCAxMC45OTk1IDIwLjUwMjggMTFDMjAuMjc3NiAxMS4wMDA1IDIwLjA1NTEgMTAuOTUwMiAxOS44NTIgMTAuODUzTDE3Ljg2IDEyLjg1M0MxNy43NjU4IDEyLjk0NjIgMTcuNjM4NSAxMi45OTgzIDE3LjUwNiAxMi45OThIMTZWMTQuOTk4SDIxLjA4MkMyMS4yODggMTQuNDExIDIxLjg0NCAxMy45OTggMjIuNDk4IDEzLjk5OEMyMi44OTU4IDEzLjk5OCAyMy4yNzc0IDE0LjE1NiAyMy41NTg3IDE0LjQzNzNDMjMuODQgMTQuNzE4NiAyMy45OTggMTUuMTAwMiAyMy45OTggMTUuNDk4QzIzLjk5OCAxNS44OTU4IDIzLjg0IDE2LjI3NzQgMjMuNTU4NyAxNi41NTg3QzIzLjI3NzQgMTYuODQgMjIuODk1OCAxNi45OTggMjIuNDk4IDE2Ljk5OEMyMS44NDQgMTYuOTk4IDIxLjI4OCAxNi41ODQgMjEuMDgyIDE1Ljk5OEgxNlYxNy45OThIMTcuNTA2QzE3LjYzOCAxNy45OTggMTcuNzY2IDE4LjA1MSAxNy44NiAxOC4xNDRMMTkuODUzIDIwLjE0NEMyMC4wODEyIDIwLjAzMzYgMjAuMzMzNiAxOS45ODMgMjAuNTg2NyAxOS45OTY4QzIwLjgzOTggMjAuMDEwNiAyMS4wODUzIDIwLjA4ODUgMjEuMzAwMSAyMC4yMjMxQzIxLjUxNDggMjAuMzU3OCAyMS42OTE5IDIwLjU0NDcgMjEuODE0NyAyMC43NjY1QzIxLjkzNzUgMjAuOTg4MiAyMi4wMDE5IDIxLjIzNzUgMjIuMDAyIDIxLjQ5MUMyMi4wMDI5IDIxLjY4ODcgMjEuOTY0NyAyMS44ODQ3IDIxLjg4OTYgMjIuMDY3NkMyMS44MTQ2IDIyLjI1MDYgMjEuNzA0IDIyLjQxNjggMjEuNTY0NCAyMi41NTY5QzIxLjQyNDggMjIuNjk3IDIxLjI1ODkgMjIuODA4IDIxLjA3NjMgMjIuODgzN0MyMC44OTM2IDIyLjk1OTQgMjAuNjk3NyAyMi45OTgzIDIwLjUgMjIuOTk4QzIwLjMwMjMgMjIuOTk4MyAyMC4xMDY2IDIyLjk1OTUgMTkuOTI0IDIyLjg4MzhDMTkuNzQxNCAyMi44MDgyIDE5LjU3NTUgMjIuNjk3MiAxOS40MzU5IDIyLjU1NzNDMTkuMjk2MyAyMi40MTczIDE5LjE4NTggMjIuMjUxMSAxOS4xMTA2IDIyLjA2ODNDMTkuMDM1NSAyMS44ODU1IDE4Ljk5NzIgMjEuNjg5NyAxOC45OTggMjEuNDkySDE5Wk0xNSAxNy41MDVWMTcuNDkyQzE0Ljk5ODQgMTcuMzYwOCAxNC45NDUzIDE3LjIzNTQgMTQuODUyMiAxNy4xNDNDMTQuNzU5IDE3LjA1MDYgMTQuNjMzMiAxNi45OTg1IDE0LjUwMiAxNi45OThIOS40OThDOS4zNjY3NyAxNi45OTg1IDkuMjQxMDEgMTcuMDUwNiA5LjE0Nzg0IDE3LjE0M0M5LjA1NDY3IDE3LjIzNTQgOS4wMDE1NyAxNy4zNjA4IDkgMTcuNDkyVjE3LjUwNUM5LjAwMTgzIDE3LjYzNjEgOS4wNTUwNSAxNy43NjExIDkuMTQ4MTkgMTcuODUzM0M5LjI0MTMyIDE3Ljk0NTUgOS4zNjY5NCAxNy45OTc1IDkuNDk4IDE3Ljk5OEgxNC41MDJDMTQuNjMzMSAxNy45OTc1IDE0Ljc1ODcgMTcuOTQ1NSAxNC44NTE4IDE3Ljg1MzNDMTQuOTQ1IDE3Ljc2MTEgMTQuOTk4MiAxNy42MzYxIDE1IDE3LjUwNVpNMTUgMTMuNTA1VjEzLjQ5MkMxNC45OTgyIDEzLjM2MSAxNC45NDUgMTMuMjM1OSAxNC44NTE4IDEzLjE0MzdDMTQuNzU4NyAxMy4wNTE1IDE0LjYzMzEgMTIuOTk5NSAxNC41MDIgMTIuOTk5SDkuNDk4QzkuMzY2OTQgMTIuOTk5NSA5LjI0MTMyIDEzLjA1MTUgOS4xNDgxOSAxMy4xNDM3QzkuMDU1MDUgMTMuMjM1OSA5LjAwMTgzIDEzLjM2MSA5IDEzLjQ5MlYxMy41MDZDOS4wMDIwOSAxMy42MzY5IDkuMDU1NDIgMTMuNzYxNyA5LjE0ODUzIDEzLjg1MzdDOS4yNDE2NCAxMy45NDU3IDkuMzY3MTEgMTMuOTk3NSA5LjQ5OCAxMy45OThIMTQuNTAyQzE0LjYzMjkgMTMuOTk3NSAxNC43NTg0IDEzLjk0NTcgMTQuODUxNSAxMy44NTM3QzE0Ljk0NDYgMTMuNzYxNyAxNC45OTc5IDEzLjYzNjkgMTUgMTMuNTA2VjEzLjUwNVoiIGZpbGw9IndoaXRlIi8+JiN4YTs8L3N2Zz4=;labelPosition=center;align=center;" vertex="1" parent="1">
          <mxGeometry x="343" y="120" width="46" height="46" as="geometry" />
        </mxCell>
      </root>
    </mxGraphModel>
  </diagram>
</mxfile>
